<svg xmlns="http://www.w3.org/2000/svg" width="101.37" height="101.37" viewBox="0 0 101.37 101.37"><path d="M86.89,72.41v28.96l14.48-14.48V72.41Z" fill="#b288d3" fill-rule="evenodd"/><path d="M0,57.93V86.89l14.48,14.48V43.45Z" fill="#b288d3" fill-rule="evenodd"/><path d="M14.48,28.96V0L0,14.48V43.45Z" fill="#b288d3" fill-rule="evenodd"/><path d="M0,14.48H101.37L86.89,0H14.48Z" fill="#b288d3" fill-rule="evenodd"/><path d="M101.37,43.45V14.48L86.89,0V57.93Z" fill="#b288d3" fill-rule="evenodd"/><path d="M86.89,36.21l14.48,7.24H86.89Z" fill="#6b527f" fill-rule="evenodd"/><path d="M79.65,14.48,86.89,0V14.48Z" fill="#6b527f" fill-rule="evenodd"/><path d="M14.48,21.72,0,14.48H14.48Z" fill="#6b527f" fill-rule="evenodd"/><path d="M77.9,79.65,65.17,66.92v34.45H79.65V81.4Z" fill="#6b527f" fill-rule="evenodd"/><rect width="14.48" height="14.48" transform="translate(43.45 65.17)" fill="#6b527f"/><rect width="14.48" height="14.48" transform="translate(21.72 65.17)" fill="#6b527f"/><path d="M80.89,43.45h20.48L86.89,57.93H66.41Z" fill="#b288d3" fill-rule="evenodd"/><path d="M14.48,65.17,0,57.93H14.48Z" fill="#6b527f" fill-rule="evenodd"/><path d="M80.89,72.41,66.41,57.93H86.89l14.48,14.48Z" fill="#b288d3" fill-rule="evenodd"/><path d="M73.24,64.75l13.65-6.82H66.41Z" fill="#6b527f" fill-rule="evenodd"/><path d="M51.93,57.93H0L14.48,43.45l51.93-.01Z" fill="#b288d3" fill-rule="evenodd"/><rect width="14.48" height="14.48" transform="translate(43.45 86.89)" fill="#6b527f"/><rect width="14.48" height="14.48" transform="translate(21.72 86.89)" fill="#6b527f"/><path d="M86.89,79.65l14.48-7.24H86.89Z" fill="#6b527f" fill-rule="evenodd"/><rect width="1.07" height="6.06" transform="translate(71.87 83.71)" fill="#fefefe"/><rect width="1.07" height="6.06" transform="translate(75.441 86.203) rotate(90)" fill="#fefefe"/></svg>