<svg xmlns="http://www.w3.org/2000/svg" width="91.094" height="22" viewBox="0 0 91.094 22"><path d="M85.006,7.815l-7.517,7.512L75.27,13.1,82.782,5.59Z" transform="translate(-34.623 -2.571)" fill="#6b527f" fill-rule="evenodd"/><rect width="7.204" height="3.143" transform="translate(40.836 8.507) rotate(90)" fill="#6b527f"/><rect width="3.143" height="21.989" fill="#b288d3"/><path d="M8.73,3.143V0h4.714a6.28,6.28,0,0,1,0,12.561H11.873l7.2,7.2-2.219,2.219-7.2-7.2a3.143,3.143,0,0,1,2.225-5.362H13.45a3.143,3.143,0,0,0,0-6.286H8.735Z" transform="translate(-4.016)" fill="#b288d3" fill-rule="evenodd"/><path d="M41.19,21.994a6.279,6.279,0,0,1-6.28-6.28V6.29A6.279,6.279,0,0,1,41.19.01h9.423V3.153H41.19A3.142,3.142,0,0,0,38.047,6.3v9.423a3.142,3.142,0,0,0,3.143,3.143h9.423V22H41.19Z" transform="translate(-16.058 -0.005)" fill="#b288d3" fill-rule="evenodd"/><rect width="9.423" height="3.143" transform="translate(23.561 9.423)" fill="#b288d3"/><path d="M76.095,20.6h3.143a3.142,3.142,0,0,1,3.143,3.143v6.28h3.143V23.74a6.279,6.279,0,0,0-6.28-6.28H76.1a6.279,6.279,0,0,0-6.28,6.28v6.28h3.143V23.74A3.142,3.142,0,0,1,76.106,20.6Z" transform="translate(-32.117 -8.031)" fill="#b288d3" fill-rule="evenodd"/><path d="M72.943,8.505V0H69.8V10.995A7.9,7.9,0,0,1,72.943,8.505Z" transform="translate(-32.107)" fill="#b288d3" fill-rule="evenodd"/><path d="M84.624,7.883l5.659-5.654L88.064.01,80.18,7.894q.34-.032.68-.032H84c.211,0,.421.011.626.027Z" transform="translate(-36.882 -0.005)" fill="#b288d3" fill-rule="evenodd"/><path d="M110.995,3.147h3.143a3.142,3.142,0,0,1,3.143,3.143v15.7h3.143V6.29a6.279,6.279,0,0,0-6.28-6.28H111a6.279,6.279,0,0,0-6.28,6.28v15.7h3.143V12.571h7.852V9.428h-7.852V6.285a3.142,3.142,0,0,1,3.143-3.143Z" transform="translate(-48.17 -0.005)" fill="#b288d3" fill-rule="evenodd"/><rect width="3.143" height="21.989" transform="translate(75.391)" fill="#b288d3"/><path d="M148.33,3.143V0h4.714a6.28,6.28,0,1,1,0,12.561h-1.571l7.2,7.2-2.219,2.219-7.2-7.2a3.143,3.143,0,0,1,2.225-5.362h1.571a3.143,3.143,0,0,0,0-6.286h-4.714Z" transform="translate(-68.23)" fill="#b288d3" fill-rule="evenodd"/><rect width="1.571" height="3.143" transform="translate(3.143)" fill="#6b527f"/><rect width="1.571" height="3.143" transform="translate(21.989 9.423)" fill="#6b527f"/><rect width="1.571" height="3.143" transform="translate(78.528)" fill="#6b527f"/><rect width="1.571" height="3.143" transform="translate(67.534 9.423)" fill="#6b527f"/><rect width="1.571" height="3.143" transform="translate(59.683 7.853) rotate(90)" fill="#6b527f"/></svg>