<svg xmlns="http://www.w3.org/2000/svg" width="114.492" height="148.503" viewBox="0 0 114.492 148.503"><g transform="translate(-242.248 -793.537)"><g transform="translate(242.248 793.537)"><g transform="translate(0 0)"><path d="M88.09,95.119H77.266V36.061a25.211,25.211,0,1,0-50.423,0l0,59.059H16V36.061a36.061,36.061,0,1,1,72.121,0Z" transform="translate(-3.433 0)" fill="#424242"/><rect width="97.193" height="62.358" rx="5.81" transform="translate(0 68.846)" fill="#6b527f"/><g transform="translate(40.474 83.747)"><path d="M67.773,114.773a8.122,8.122,0,1,0-10.337,7.784V134.7h4.43V122.557a8.106,8.106,0,0,0,5.907-7.784Z" transform="translate(-51.529 -106.621)" fill="#424242"/></g></g></g><g transform="translate(259.547 810.836)"><g transform="translate(0 0)"><path d="M88.09,95.119H77.266V36.061a25.211,25.211,0,1,0-50.423,0l0,59.059H16V36.061a36.061,36.061,0,1,1,72.121,0Z" transform="translate(-3.433 0)" fill="#616161"/><rect width="97.193" height="62.358" rx="5.81" transform="translate(0 68.846)" fill="#b288d3"/><g transform="translate(40.474 83.747)"><path d="M67.773,114.773a8.122,8.122,0,1,0-10.337,7.784V134.7h4.43V122.557a8.106,8.106,0,0,0,5.907-7.784Z" transform="translate(-51.529 -106.621)" fill="#424242"/></g></g></g></g></svg>