<svg xmlns="http://www.w3.org/2000/svg" width="95.118" height="160.53" viewBox="0 0 95.118 160.53"><g transform="translate(0)"><g transform="translate(0)"><path d="M56.8,121.79H36.589a23.651,23.651,0,0,0-5.717,17.163,27.95,27.95,0,0,1,3.363-3.219.37.37,0,0,1,.6.36c-.36,2.3,0,9.255,11.856,20.988C58.605,145.318,58.9,138.4,58.554,136.094a.37.37,0,0,1,.586-.36,27.95,27.95,0,0,1,3.363,3.219A23.651,23.651,0,0,0,56.8,121.79Z" transform="translate(0.872 3.448)" fill="#f97325"/><path d="M46.358,114.13h0s-12.946,10.283,0,27.96h0C59.295,124.4,46.358,114.13,46.358,114.13Z" transform="translate(1.149 3.231)" fill="#ffc717"/><path d="M46.295,120.52h0s-7.733,6.17,0,16.71h0C54.017,126.659,46.295,120.52,46.295,120.52Z" transform="translate(1.213 3.412)" fill="#fff"/><path d="M32.08,117.281l1.47,2.8a3.64,3.64,0,0,0,3.229,2.057H56.317a3.64,3.64,0,0,0,3.177-2.057l1.47-2.838Z" transform="translate(0.908 3.319)" fill="#949494" stroke="#424242" stroke-miterlimit="10" stroke-width="2"/><path d="M28,112.06l1.892,3.651a4.679,4.679,0,0,0,4.165,2.53H59.189a4.679,4.679,0,0,0,4.165-2.53l1.892-3.651Z" transform="translate(0.792 3.173)" fill="#4d4d4d" stroke="#424242" stroke-miterlimit="10" stroke-width="2"/><path d="M63.9,84.87s31.662,10.869,29.646,42.7c0,0-26.664-27.158-41.133-21.348Z" transform="translate(1.484 2.403)" fill="#b288d3"/><path d="M29.749,84.87S-1.923,95.739.093,127.566c0,0,26.664-27.158,41.133-21.348Z" transform="translate(0 2.403)" fill="#b288d3"/><path d="M61.924,26.428A100.158,100.158,0,0,0,46.541,0h0A99.747,99.747,0,0,0,31.26,26.14a65.236,65.236,0,0,1,30.664.288Z" transform="translate(0.885)" fill="#b288d3"/><path d="M62.6,26.836h0l-.422-1.08a63.015,63.015,0,0,0-30.664-.288l-.535,1.368h0c-14,36.248-7.651,75.6-5.4,86.707a3.846,3.846,0,0,0,3.764,3.085H64.238A3.846,3.846,0,0,0,68,113.543C70.253,102.437,76.6,63.084,62.6,26.836Z" transform="translate(0.628 0.671)" fill="#fff"/><circle cx="12.988" cy="12.988" r="12.988" transform="translate(33.8 42.737)" fill="#043146"/><circle cx="9.841" cy="9.841" r="9.841" transform="translate(36.947 45.883)" fill="#6b527f"/><path d="M46.38,88.72a56.136,56.136,0,0,0,0,45.04,56.136,56.136,0,0,0,0-45.04Z" transform="translate(1.179 2.512)" fill="#b288d3"/></g></g></svg>