<svg xmlns="http://www.w3.org/2000/svg" width="106.619" height="171.304" viewBox="0 0 106.619 171.304"><g transform="translate(445.042 249.485)"><g transform="translate(-445.042 -249.485)"><ellipse cx="33.555" cy="36.581" rx="33.555" ry="36.581" transform="translate(19.946 12.808)" fill="#f6ca7d"/><path d="M64.039,98.452l-9.223,6.771L45.34,98.452,46.313,80.2H63.066Z" transform="translate(-1.188 2.19)" fill="#f6ca7d"/><path d="M9.112,11.03C18.082,1.214,31.459-1.084,39.356.422c9.233,1.843,25.1,6.9,27.45,28.748,0,0-3.592-6.193-14.187-15.28-3.577,6.357-6.261,7.862-21.434,14.837C17.817,35.159,13.794,41.371,9.241,47.285c-8.2-1.272-5.721-5.709-7.909-5.709C1.274,41.576-4.693,26.139,9.112,11.03Z" transform="matrix(0.891, 0.454, -0.454, 0.891, 38.523, 0)" fill="#424242"/><path d="M89.594,101.15c-8.7-2.082-27.523-8.98-27.523-8.98l-8.707,12.648-8.2-12.648S23.387,99.194,15,102.327C7.432,105.168,2.791,140.338,0,157.6c-.769,4.865,9.564,11.84,9.564,11.84H95.626s11.675-8.513,10.916-12.735C103.4,139.366,100.86,103.835,89.594,101.15Z" transform="translate(0.042 1.866)" fill="#b288d3"/><path d="M47.121,89.56,39.25,95.144A113.157,113.157,0,0,1,54.5,104.8Z" transform="translate(-2.969 1.937)" fill="#fff"/><path d="M62.468,89.56,70.1,95.144A90.479,90.479,0,0,0,54.85,104.8Z" transform="translate(0.5 1.937)" fill="#fff"/><path d="M15.35,43.422c0-.71-.379-17.405,10.634-28.749C32.4,8.057,41.375,4.7,52.632,4.7,73.17,4.7,82.9,15.237,87.442,24.08A46.5,46.5,0,0,1,92.4,43.392H90.9a45.727,45.727,0,0,0-4.865-18.66C79.7,12.454,68.451,6.247,52.6,6.247c-10.828,0-19.458,3.2-25.558,9.505C16.508,26.62,16.868,43.208,16.877,43.373Z" transform="translate(-0.375 4.236)" fill="#6b527f"/><rect width="96.055" height="55.835" rx="3.7" transform="translate(5.47 109.758)" fill="#424242"/><path d="M31.8,167.064c0,3.22-.749.915-1.673.915H16.233c-.973,0-1.673,1.819-1.673-.915v-1.78a1.673,1.673,0,0,1,1.673-1.673H30.126a1.673,1.673,0,0,1,1.673,1.673Z" transform="translate(-0.354 -0.07)" fill="#fff"/><path d="M94.86,168.046c0,.973-.749.73-1.673.73H79.293c-.973,0-1.673.263-1.673-.662v-2.831a1.673,1.673,0,0,1,1.673-1.673H93.186a1.673,1.673,0,0,1,1.673,1.673Z" transform="translate(-2.062 -0.07)" fill="#fff"/><path d="M101.644,169.261a2.1,2.1,0,0,1-2.1,2.1H7.681a2.1,2.1,0,0,1-2.1-2.1h0a2.1,2.1,0,0,1,2.1-2.1H99.543a2.1,2.1,0,0,1,2.1,2.1Z" transform="translate(-0.11 -0.166)" fill="#424242"/><path d="M44.076,78.383c-11.247,0-19.4-2.919-24.216-8.562a20.8,20.8,0,0,1-4.5-15.732l1.5.253c0,.078-1.245,8.143,4.183,14.506,4.514,5.312,12.268,8.007,23.038,8.007Z" transform="translate(-0.371 2.898)" fill="#6b527f"/><path d="M19.88,56.608h0A10.07,10.07,0,0,1,9.81,46.548V45.41A10.07,10.07,0,0,1,19.88,35.35h0" transform="translate(-0.225 3.406)" fill="#043146"/><path d="M22.028,56.868a2.179,2.179,0,0,1-2.179,2.189h0a2.189,2.189,0,0,1-2.189-2.189V34.939a2.189,2.189,0,0,1,2.189-2.189h0a2.179,2.179,0,0,1,2.179,2.189Z" transform="translate(-0.438 3.476)" fill="#6b527f"/><path d="M89.74,35.35h0A10.06,10.06,0,0,1,99.8,45.41v1.138a10.06,10.06,0,0,1-10.06,10.06h0" transform="translate(-2.391 3.406)" fill="#043146"/><path d="M87.75,34.939a2.179,2.179,0,0,1,2.189-2.179h0a2.189,2.189,0,0,1,2.179,2.179V56.869a2.189,2.189,0,0,1-2.179,2.189h0a2.179,2.179,0,0,1-2.179-2.189Z" transform="translate(-2.337 3.476)" fill="#6b527f"/><path d="M50.835,78.158A4.038,4.038,0,1,1,46.8,74.13a4.038,4.038,0,0,1,4.038,4.028Z" transform="translate(-1.118 2.355)" fill="#6b527f"/></g></g></svg>