<svg xmlns="http://www.w3.org/2000/svg" width="638.07" height="311.321" viewBox="0 0 638.07 311.321"><g transform="translate(0 0.001)"><line x2="638.07" transform="translate(0 310.82)" fill="none" stroke="#010101" stroke-linejoin="round" stroke-width="1"/><path d="M377.72,213.89l-1.32-.3-4.59,19.83a2.25,2.25,0,0,1-1.59,1.64l-.06.13,2.11.49a.31.31,0,0,0,.23,0h.07a1.69,1.69,0,0,0,.86-1.11l4.65-20.07a.47.47,0,0,0-.36-.61Z" fill="#010101"/><path d="M353.3,207.05l15.46,6.35,6.93,1.19-4.45,19.22a1,1,0,0,1-1.21.7h0a1,1,0,0,1-.79-.81l-2.66-9.78L350,219.61" fill="#f6d8a2"/><path d="M363.56,211.27l5.2,2.13,6.93,1.19-4.45,19.22a1,1,0,0,1-1.21.7h0a1,1,0,0,1-.79-.81l-2.66-9.78-7-1.82" fill="#fff"/><path d="M365.59,224l3.5,10.29a1.28,1.28,0,0,0,1,.92h0a1.34,1.34,0,0,0,1.52-.94l4.78-20.64-7.85-.26S369.19,220.23,365.59,224Z" fill="#b288d3"/><path d="M365.71,225.49a12.809,12.809,0,0,1,2.73-.81" fill="none" stroke="#010101" stroke-linecap="round" stroke-linejoin="round" stroke-width="1"/><path d="M366.21,226.88a11.143,11.143,0,0,1,2.31-.65" fill="none" stroke="#010101" stroke-linecap="round" stroke-linejoin="round" stroke-width="1"/><path d="M366.54,228a16.562,16.562,0,0,1,2.12-.58" fill="none" stroke="#010101" stroke-linecap="round" stroke-linejoin="round" stroke-width="1"/><path d="M276,310.35V309l-20.35-.07a2.25,2.25,0,0,1-1.95-1.18h-.14v2.17a.35.35,0,0,0,.08.22v.05a1.68,1.68,0,0,0,1.28.59l20.59.07a.46.46,0,0,0,.49-.5Z" fill="#010101"/><path d="M271.75,284.24l2.72,17.27.38,7-19.72-.06a1,1,0,0,1-.95-1h0a1,1,0,0,1,.62-.95l8.94-4.77-5-17.88" fill="#f6d8a2"/><path d="M273.48,295.2l1,6.31.38,7-19.72-.06a1,1,0,0,1-.95-1h0a1,1,0,0,1,.62-.95l8.94-4.77-1.62-5.83" fill="#fff"/><path d="M263.47,300.76l-9.24,5.7a1.29,1.29,0,0,0-.68,1.19h0a1.35,1.35,0,0,0,1.26,1.28L276,309l-1.5-7.72S267.91,303.44,263.47,300.76Z" fill="#b288d3"/><path d="M262,301.22a12.159,12.159,0,0,1,1.4,2.49" fill="none" stroke="#010101" stroke-linecap="round" stroke-linejoin="round" stroke-width="1"/><path d="M260.77,302a12.117,12.117,0,0,1,1.15,2.12" fill="none" stroke="#010101" stroke-linecap="round" stroke-linejoin="round" stroke-width="1"/><path d="M259.72,302.59a15.7,15.7,0,0,1,1,1.94" fill="none" stroke="#010101" stroke-linecap="round" stroke-linejoin="round" stroke-width="1"/><path d="M237.65,107.94v10s-8.17,60.71-1.86,93.89c6.55,34.47,23.33,77.27,23.33,77.27h14.59s-5.22-67.21-6.47-82c.67-14.19,4.11-59.08,4.11-59.08s14.1-21.68.13-39.5" fill="#b288d3"/><path d="M270.87,289.07s-6.21-60.09-8.11-79.29a33.92,33.92,0,0,1-.08-5.52c1.12-16.44,3.95-56.23,3.95-56.23" fill="none" stroke="#1d334f" stroke-linejoin="round" stroke-width="0.75"/><path d="M248.5,114.64s-.12,22.29,1.91,32.16c3,14.34,9,35.38,24.77,52,14.74,15.55,76.93,22.09,76.93,22.09l4.8-13S320.13,183.77,296,182.18c-1.49-5-8.27-39.5-8.27-39.5s.61-19.7-10-29.31a9.08,9.08,0,0,1-2-2.31l-7.26-13.63" fill="#b288d3"/><path d="M237.65,117.91s19.54,3.81,39.12-5.41" fill="none" stroke="#1d334f" stroke-linejoin="round" stroke-width="0.75"/><path d="M246.59,118.69l-1.9-.06a1.19,1.19,0,0,1-1.15-1.19v-4a1.2,1.2,0,0,1,1.14-1.2l2.57-.11" fill="none" stroke="#1d334f" stroke-linejoin="round" stroke-width="0.75"/><path d="M247.25,115.5a.737.737,0,1,1-.78-.78.78.78,0,0,1,.78.78Z" fill="#fff"/><path d="M248.5,118.67s-.12,18.26,1.91,28.13c2.24,10.9,7.31,28.38,17.85,43.66" fill="none" stroke="#1d334f" stroke-linejoin="round" stroke-width="0.75"/><path d="M244.69,118.63c.12,2.82.23,5.63.34,8.45.19,4.73-.85,9.26,4.29,11.49" fill="none" stroke="#1d334f" stroke-linejoin="round" stroke-width="0.75"/><line x1="1.54" y1="6.04" transform="translate(256.95 111.65)" fill="none" stroke="#1d334f" stroke-linejoin="round" stroke-width="0.75"/><line x1="2.12" y1="6.39" transform="translate(270.36 107.94)" fill="none" stroke="#1d334f" stroke-linejoin="round" stroke-width="0.75"/><path d="M356,210.32s-37-21.51-60.86-24.57a3.68,3.68,0,0,1-3.16-2.86c-2-9-6.49-30.49-7.45-35.86a6.451,6.451,0,0,1-.06-1.86c.43-3.74-1.23-24.23-12-30.84" fill="none" stroke="#1d334f" stroke-linejoin="round" stroke-width="0.75"/><path d="M360.13,209.22l-3.85-2.35-5.47,14.75,4.48.66Z" fill="#89b5f4"/><path d="M274.47,291.28v-4.43l-16.9.01,1,4.43Z" fill="#89b5f4"/><path d="M266.6,116.27A59.6,59.6,0,0,0,279.81,123" fill="none" stroke="#1d334f" stroke-linejoin="round" stroke-width="0.75"/><path d="M236.06,128.6a64.119,64.119,0,0,0,4.39-9.91" fill="none" stroke="#1d334f" stroke-linejoin="round" stroke-width="0.75"/><path d="M287.22,67.43s19.17,21.84,21.09,27.81,6.21,40.64,6.21,40.64l-10,1.23-11.3-36.85L268.47,76.38" fill="#f6d8a2"/><path d="M303.91,133.67c.25,2.38.46,6.79.71,9.16.15,1.4.56,3.85,1.18,3.94,1.61.24.24-3.74,1.06-3.62.49.07.71,3.1.83,4.65.11,1.39.45,3.25,1.31,3.43,1.12.22.46-7.56.46-7.56s1,8.16,2,8.3c1.36.2.34-8,.34-8s1,6.94,2,7.09.14-4.93.14-7.05c.36,1.51.89,5.5,1.62,5.6s.76-2.88.67-3.62c-.48-4.46-2.33-13.2-2.33-13.2" fill="#f6d8a2"/><path d="M225,65.36,211.9,79,179.66,64l-5.8,7.34S202.83,98,212.46,98c7.53,0,32.42-19,32.42-19" fill="#f6d8a2"/><path d="M183.2,65.65c-2.15-2-6.38-6.3-8.53-8.3-1.26-1.17-3.59-3.12-4.11-2.75-1.36,1,2.93,3.6,2.25,4.09-.39.28-3.2-2.11-3.66-2.4a35.809,35.809,0,0,0-4.43-2.41,1.83,1.83,0,0,0-.87-.23.65.65,0,0,0-.62.56.94.94,0,0,0,.45.67l5.5,4.5a1.79,1.79,0,0,0-1.74.66,1.1,1.1,0,0,0-.09,1.24,2,2,0,0,0-1.16.23,1.42,1.42,0,0,0-.37,1.22,4.07,4.07,0,0,0,.43,1.24,1,1,0,0,0-1.13.69,2.26,2.26,0,0,0,0,1.43,5.82,5.82,0,0,0,2.63,3.42c.58.33,1.11.81,1.81.74a1.87,1.87,0,0,0,1.57-1.17,16.35,16.35,0,0,0,5.59,4.41" fill="#f6d8a2"/><path d="M177.1,66.81a10.85,10.85,0,0,1-3.5-6.61" fill="none" stroke="#e07a6c" stroke-linejoin="round" stroke-width="0.75"/><path d="M170.39,60.84c.58.65,1.1,1.35,1.7,2s2.28,1.77.89,2.41c-.93.43-2.29-.36-3-.91-.48-.38-.89-.84-1.4-1.18-.15-.1-.29.09-.22.22.8,1.62,3.64,3.6,5.4,2.14a.91.91,0,0,0,.24-1.26,9.53,9.53,0,0,0-1.67-1.69c-.62-.61-1.29-1.16-1.92-1.77Z" fill="#e07a6c"/><path d="M166.86,65.05a13.86,13.86,0,0,0,2.44,2.34,2.24,2.24,0,0,0,2,.6c.82-.28,1.47-1.79.76-2.46a.12.12,0,0,0-.2,0,5.46,5.46,0,0,0-.11,1,1.05,1.05,0,0,1-1.68.74,16.43,16.43,0,0,1-3-2.42.12.12,0,0,0-.17.16Z" fill="#e07a6c"/><path d="M258.49,55.68a22.1,22.1,0,0,1,21.61,3.8A141.712,141.712,0,0,1,296,75.7l-15.34,14-16.9-15.44" fill="#f97325"/><path d="M254.23,56.38s-10.32-2.93-20,2.28-17.92,15.89-17.92,15.89l14,15.17L247,79" fill="#f97325"/><path d="M238.74,63c-14.4,14.41-2.33,25.63-2.33,25.63l1.24,22.87s3.6,1.22,10.85,1a91.72,91.72,0,0,0,25.3-5s4.53-20.37,4.81-31.13c.24-9.59-7-15.14-7-15.14l-15.07-5.68Z" fill="#f97325"/><path d="M250.42,22.54a6.5,6.5,0,0,0-2.9,1.12,10,10,0,0,1-2.24,1.12,12.32,12.32,0,0,0-4.72,3.51,10.34,10.34,0,0,0-2.27,7.77,13.791,13.791,0,0,1,.31,2.47c-.09,2.11-1.45,2.37-2.91,3.68-1.67,1.49-3.26,3.33-3.29,5.69a6.59,6.59,0,0,0,4.16,6.2c1.92.66,4.45,0,6.46-.14l14.57-1.07c4-.29,8.12-.89,12.14-.86,3,0,3.48-2.73,3.52-5.24a9.44,9.44,0,0,0-1.93-5.69A9.321,9.321,0,0,1,270,39.53a4.51,4.51,0,0,1-.35-1.71,32.465,32.465,0,0,0-.81-6.08,10.31,10.31,0,0,0-3-5.23,6.54,6.54,0,0,0-3.45-1.59,16.93,16.93,0,0,0-4,.07" fill="#010101"/><path d="M252.35,44.74l-1.94,12s.07,4.15,6.13,4.15a5.07,5.07,0,0,0,5.1-3.93l-1.73-12.18" fill="#f6d8a2"/><path d="M262.67,27.75c5.5,5.51,9.39,19.87.7,21.56a12.62,12.62,0,0,1-14.48-8.59C246.3,32.51,257.16,22.25,262.67,27.75Z" fill="#f6d8a2"/><path d="M265.34,35.15a.8.8,0,0,1-.8.8.8.8,0,1,1,.8-.8Z" fill="#060a47"/><path d="M256.54,38.36a.8.8,0,0,0,1.59,0,.8.8,0,0,0-.8-.8.79.79,0,0,0-.79.8Z" fill="#060a47"/><path d="M258.42,35.08a3.29,3.29,0,0,0-4.52,2.26c0,.12.15.22.22.09a3.54,3.54,0,0,1,4.22-2.07.15.15,0,0,0,.08-.28Z" fill="#060a47"/><path d="M265.64,32.34c-1.38-1.32-4.39-.32-4.06,1.79,0,.09.17.11.2,0A3.68,3.68,0,0,1,263,32.48a2.55,2.55,0,0,1,2.52.05c.12.06.26-.09.15-.19Z" fill="#060a47"/><path d="M261.66,36.19s3.07,3.28,2.75,4c-.54,1.24-2.38,1.24-2.38,1.24" fill="none" stroke="#e07a6c" stroke-linejoin="round" stroke-width="0.75"/><path d="M259.1,44.18l6.13-1.61s.8,3.6-1.2,4.15a3.83,3.83,0,0,1-4.93-2.54Z" fill="#fff"/><path d="M241,29.82c1-3.9,3.52-7.29,7.43-8.31a14.76,14.76,0,0,1,5.46-.29,32.34,32.34,0,0,1,4.49,1.29c1.5.41,2.79-.33,4.3-.22,2.9.21,5.93,2.67,4.55,5.79a7,7,0,0,1-3.12,3.09c-3.46,1.93-7.57,2.24-11.53,2.3.61,0,1,3.59,1,4.05a14.53,14.53,0,0,1-1,3.75,70.109,70.109,0,0,1-4.27,9.78c-.13.24-.33.52-.6.48a.61.61,0,0,1-.34-.23,21.62,21.62,0,0,1-3.57-5.16,28.309,28.309,0,0,1-2.26-4.33,7.22,7.22,0,0,1,0-2.41,8.22,8.22,0,0,0-.67-2.9,13,13,0,0,1,.13-6.68Z" fill="#010101"/><path d="M260.65,50a11.73,11.73,0,0,1-7.24-2.25" fill="none" stroke="#e07a6c" stroke-linejoin="round" stroke-width="0.75"/><path d="M252.89,41a1.71,1.71,0,0,0-2.49.27c-1,1.22-.59,3.14.31,4.44,1,1.46,2.06,1.51,2.76,1.21s1-1.52.56-2.78" fill="#f6d8a2"/><path d="M247.15,25.42c2.1-.48,2.13-3,1.87-4.68A6.68,6.68,0,0,0,241.76,15c-3.91.25-8.1,2.87-7.49,8.39.53,4.86,8.17,5.9,11.7,3.11.12-.1.25-.2.36-.31" fill="#010101"/><path d="M249.09,21.36s-5.24.47-8.43,6.55" fill="none" stroke="#b288d3" stroke-linejoin="round" stroke-width="1"/><line x1="13.27" y1="12.24" transform="translate(264.54 74.89)" fill="none" stroke="#91302c" stroke-linejoin="round" stroke-width="0.75"/><path d="M238.74,63c-14.4,14.41-2.33,25.63-2.33,25.63" fill="none" stroke="#91302c" stroke-linejoin="round" stroke-width="0.75"/><path d="M417.52,62.65s17.75,10.88,21.4,15.52c9.1,11.55,22,49.46,22,49.46l-9.71,4.58s-23.04-37.91-24.6-38.77c-5.94-3.25-26.27-9.9-26.27-9.9" fill="#f6ca7d"/><path d="M395.18,48.56c13.9,3.07,36.54,20.94,36.54,20.94L409.08,97.43,391,84.86" fill="#b288d3"/><path d="M468.87,287.89l-1.37-1.74-26.56,20.93a4,4,0,0,1-3.87.59l-.23.11,2.2,2.79a.5.5,0,0,0,.33.2h.12a3.09,3.09,0,0,0,2.35-.62L468.74,289a.78.78,0,0,0,.13-1.11Z" fill="#010101"/><path d="M446.3,251.18l12.79,26,6.37,9.63L439.76,307a1.66,1.66,0,0,1-2.34-.28h0a1.66,1.66,0,0,1-.13-1.88L444.64,289l-16.46-24.33" fill="#f6ca7d"/><path d="M443.76,287.75l-7.26,17.68a2.1,2.1,0,0,0,.27,2.26h0a2.29,2.29,0,0,0,3,.28l27.7-21.82-8.61-9.31S452.55,286.37,443.76,287.75Z" fill="#f97325"/><path d="M441.78,290.27a20.711,20.711,0,0,1,4.44,1.68" fill="none" stroke="#010101" stroke-linecap="round" stroke-linejoin="round" stroke-width="1"/><path d="M440.89,292.64a18.143,18.143,0,0,1,3.72,1.47" fill="none" stroke="#010101" stroke-linecap="round" stroke-linejoin="round" stroke-width="1"/><path d="M440,294.52a24.851,24.851,0,0,1,3.4,1.36" fill="none" stroke="#010101" stroke-linecap="round" stroke-linejoin="round" stroke-width="1"/><path d="M387.66,144.91s.62,65.26,5.6,79.72c6.26,18.17,30.54,57.86,30.54,57.86l32.62-17.08L429.49,214.3a15.36,15.36,0,0,1-1.77-7.63c.24-8.23.83-26.53,1.43-31.36.64-5.14,2.64-9.48,4.37-14.28,3.5-9.65,7-20.8,5.49-31.18" fill="#6b527f"/><path d="M396.52,141.34s.63,65.26,5.61,79.72c6.26,18.17,30,57.09,30,57.09" fill="none" stroke="#010101" stroke-linejoin="round" stroke-width="0.75"/><path d="M360.13,310v-2.21H326.32a4,4,0,0,1-3.4-1.93h-.25v3.55a.5.5,0,0,0,.14.35l.09.1a3,3,0,0,0,2.22,1h34.24a.77.77,0,0,0,.77-.86Z" fill="#010101"/><path d="M365.1,267.23l-6,28.32-.95,11.51H325.43a1.67,1.67,0,0,1-1.67-1.67h0a1.67,1.67,0,0,1,1.07-1.55L340.39,296l2.11-29.31" fill="#f6ca7d"/><path d="M340.49,294.39l-16.64,9.4a2.11,2.11,0,0,0-1.18,1.95h0a2.29,2.29,0,0,0,2.2,2.09h35.26l-1-12.65S348.25,298.75,340.49,294.39Z" fill="#f97325"/><path d="M337.37,295.15a19.831,19.831,0,0,1,2.45,4.07" fill="none" stroke="#010101" stroke-linecap="round" stroke-linejoin="round" stroke-width="1"/><path d="M335.21,296.46a18.14,18.14,0,0,1,2,3.46" fill="none" stroke="#010101" stroke-linecap="round" stroke-linejoin="round" stroke-width="1"/><path d="M333.38,297.42a24.356,24.356,0,0,1,1.83,3.17" fill="none" stroke="#010101" stroke-linecap="round" stroke-linejoin="round" stroke-width="1"/><path d="M377,133.52,374.7,149s-25.85,37.32-33.37,65.35c-3.69,13.74-11.49,71.35-11.49,71.35h37.62s8.58-54.39,13.78-66.79,27.06-44.58,30.79-50.1c14.65-11.33,17.94-31.14,10.39-49.56" fill="#6b527f"/><path d="M390.21,202.43l20.48-31.67a13.61,13.61,0,0,1,2.75-3c2.81-2.25,10.56-10.9,11.65-19.2" fill="none" stroke="#010101" stroke-linejoin="round" stroke-width="0.75"/><path d="M383.71,133.52,381.85,146a13.05,13.05,0,0,1-2.05,5.35c-5.78,8.67-25.37,39.16-31.75,62.95-3.69,13.74-11.49,71.35-11.49,71.35" fill="none" stroke="#010101" stroke-linejoin="round" stroke-width="0.75"/><line x2="37.85" transform="translate(331.1 276.56)" fill="none" stroke="#010101" stroke-linejoin="round" stroke-width="0.75"/><path d="M415.76,147.64l-18.2.22s-2.28,12.19-1.57,12.89c1,1,6.14,5.85,8,5.85s7.38-4.73,8.48-5.83S415.76,147.64,415.76,147.64Z" fill="none" stroke="#010101" stroke-linejoin="round" stroke-width="0.75"/><line x2="2" transform="translate(397.07 150.38)" fill="none" stroke="#010101" stroke-linejoin="round" stroke-width="0.75"/><line x2="11.13" transform="translate(401.1 150.38)" fill="none" stroke="#010101" stroke-linejoin="round" stroke-width="0.75" stroke-dasharray="4.05 2.02"/><line x2="2" transform="translate(413.24 150.38)" fill="none" stroke="#010101" stroke-linejoin="round" stroke-width="0.75"/><path d="M437.34,145.89l-5.39.62s-1,12.36-.25,13l1.75,2.59" fill="none" stroke="#010101" stroke-linejoin="round" stroke-width="0.75"/><line y1="0.21" x2="1.99" transform="translate(431.72 148.86)" fill="none" stroke="#010101" stroke-linejoin="round" stroke-width="0.75"/><line y1="0.2" x2="1.99" transform="translate(434.87 148.54)" fill="none" stroke="#010101" stroke-linejoin="round" stroke-width="0.75"/><line y1="17.11" x2="33.11" transform="translate(419.57 258.33)" fill="none" stroke="#010101" stroke-linejoin="round" stroke-width="0.75"/><path d="M387.3,44.9c25.2,8.36,39,42.73,54.84,88.62,0,0-36.67,11.19-71.67,8.83.58-19.84-1.67-66.63-1.67-66.63L376,47.05" fill="#b288d3"/><path d="M421.73,81.83s-12-24.08-28.65-34.15" fill="none" stroke="#1d334f" stroke-linejoin="round" stroke-width="0.75"/><path d="M369.4,29.82a3.67,3.67,0,1,1-1.071-2.6,3.67,3.67,0,0,1,1.071,2.6Z" fill="none" stroke="#fff" stroke-linejoin="round" stroke-width="0.5"/><path d="M368.8,41.87l3-15.85,9.66,8.42L383,36.61l4.32,8.29s-4.3,9.39-12.25,8.27a1.37,1.37,0,0,1-1-.78L368.8,41.87" fill="#f6ca7d"/><path d="M365.19,19.72c-2.13,4.68-4.67,21.84-1,24.26s10.19,1.38,13-1.21c2.45-2.24,6.7-15.76,3.66-19.75S368.18,13.16,365.19,19.72Z" fill="#f6ca7d"/><path d="M384.89,21.47c-2-6.15-5.6-7.23-11-7.23-4.88,0-10.07,0-13.85,3.24a3.18,3.18,0,0,0-1.37,2.91c.26,1.93,2.28,3.17,4,3.52,2.57.51,5.1,1,7.63,1.69s3.75,3.3,6,4.53c.4.22.84.39,1.23.64a3.88,3.88,0,0,1,1.68,2.39c.17.74.11,1.51.27,2.24.27,1.24,1.36,1.78,2.33,2.42.77.51,2.4,1.35,2.4,1.35s3-4.91,3-9.64C387.3,27.09,386.71,23.29,384.89,21.47Z" fill="#010101"/><path d="M371.05,45.6s5.34-.51,6.94-4.25" fill="none" stroke="#d85039" stroke-linejoin="round" stroke-width="0.75"/><path d="M364.15,29.91S359.44,34.69,360,36s2.84,1,2.84,1" fill="#f6ca7d"/><path d="M366.29,29.53a4.08,4.08,0,0,0-.27,1,.64.64,0,0,0,.77.71c.81-.12,1-1.95,0-2a.54.54,0,0,0-.5.29Z" fill="#010101"/><path d="M363.67,38.53l5.89-.64s-.5,4.31-4,4.37C363.43,42.3,363.67,38.53,363.67,38.53Z" fill="#fff"/><path d="M365.47,27.85a10,10,0,0,1,3.58,1.41,1,1,0,0,0,.43-1,7.33,7.33,0,0,0-3.73-1.58S365.26,27.65,365.47,27.85Z" fill="#010101"/><path d="M370.56,30.22a3.67,3.67,0,1,1-3.67-3.68A3.67,3.67,0,0,1,370.56,30.22Z" fill="none" stroke="#fff" stroke-linejoin="round" stroke-width="0.5"/><line x1="1.19" y1="0.34" transform="translate(362.14 28.96)" fill="none" stroke="#fff" stroke-linejoin="round" stroke-width="0.5"/><line x2="7.44" y2="1.83" transform="translate(370.55 30.02)" fill="none" stroke="#fff" stroke-linejoin="round" stroke-width="0.5"/><path d="M376.84,32.41c.62-.79,1.42-1.66,2.35-1.59a1.71,1.71,0,0,1,1.18.72,4.78,4.78,0,0,1-1.07,6.61c-.89.57-2,.71-2.57-.38L376.59,33a.84.84,0,0,1,.25-.59Z" fill="#f6ca7d"/><path d="M380.25,37.28s-1.62,1.71-3.26.88" fill="none" stroke="#d85039" stroke-linejoin="round" stroke-width="0.75"/><path d="M361.18,68.84s-9.59,25.19-11,27.22c-1.69,2.4-30.81,31.17-30.81,31.17l5.31,10.68s37.06-21.66,41.93-27.83c4.52-5.74,12.14-25.56,12.14-25.56" fill="#f6ca7d"/><path d="M392.36,50.25c-8.24-3.71-18.9-3.1-28.11,11.82-6.14,10-14.08,26.27-14.08,26.27l28.55,14.73,15.07-31.33" fill="#b288d3"/><path d="M391.56,76.38l-12.84,26.69L350.17,88.34" fill="none" stroke="#1d334f" stroke-linejoin="round" stroke-width="0.75"/><path d="M380.14,48.77a20.13,20.13,0,0,1,11.05,1" fill="none" stroke="#1d334f" stroke-linejoin="round" stroke-width="0.75"/><line x2="28.58" y2="14.48" transform="translate(352.59 83.49)" fill="none" stroke="#1d334f" stroke-linejoin="round" stroke-width="0.75"/><path d="M321.37,125.24a19.76,19.76,0,0,1-7.6,4.22s.12,2.07.18,2.49a29.069,29.069,0,0,1-5.53,2.71c-1.8.61-4.16,1.64-4.08,2.64.1,1.28,10.2-2.2,10.2-2.2s-10.47,4-10.32,5.09c.23,1.55,10.76-2.48,10.76-2.48s-8.86,3.56-8.7,4.7,6.61-1.6,9.42-2.35c-1.88.92-7,2.91-6.87,3.75s4.11-.22,5.06-.57c5.75-2.11,16.23-8.56,16.23-8.56" fill="#f6ca7d"/><path d="M485,263.78l-1.83,32.94s-16.91,11.7-16.91,11.9,15.59.77,15.59.77l6.9-3.38h11.44a1.23,1.23,0,0,0,1.2-1.5L500,298.35,504.69,272" fill="#f6d8a2"/><path d="M467.38,306.32c2.46-1.43,10.93-6.78,10.93-6.78L488.7,306h13v4.81H488.29v-2.88h-1.17a1.37,1.37,0,0,0-.83.27l-3,2.22a2,2,0,0,1-1.18.39h-15.9C464.12,310.82,463.63,308.5,467.38,306.32Z" fill="#010101"/><path d="M492.17,306.92l8.66-5.34-.46-2.04-9.4,6.49Z" fill="#010101"/><path d="M546.31,244.6l23.54,23.1s-2.36,20.42-2.21,20.56S578.5,277,578.5,277l2-7.41,7.54-8.6a1.24,1.24,0,0,0-.34-1.9l-5.55-3-16.69-20.91" fill="#f6d8a2"/><path d="M566.65,285.89c.55-2.78,2.12-12.68,2.12-12.68l11.71-3.54,8.59-9.8,3.62,3.17-8.86,10.1-2.17-1.9-.78.89a1.37,1.37,0,0,0-.33.8l-.29,3.68a1.94,1.94,0,0,1-.48,1.14l-10.48,12C567.88,291.32,565.82,290.15,566.65,285.89Z" fill="#010101"/><path d="M583.45,267.65l1.7-10.03-1.84-.99-1.32,11.34Z" fill="#010101"/><path d="M501.57,128.5s-18.51,53.11-20.87,75.81-4.44,81.35-4.44,81.35h34s4.74-74.14,7.94-85.47c1.75-6.23,3.89-17.75,8.11-38.06,5.66-14.49,8.5-20,5.86-32" fill="#f97325"/><path d="M515.69,127.92s0,17-1.48,24.86c-1.94,8.41-12.5,38.26-6.85,54.17S555,266.34,555,266.34l18.51-23.45-35.2-46,9.08-36.32s8.89-15.88.6-32" fill="#f97325"/><path d="M515.69,136.77a99.615,99.615,0,0,1-1.48,16c-1.94,8.41-12.5,38.26-6.85,54.17,1.31,3.66,4.38,8.59,8.33,14" fill="none" stroke="#91302c" stroke-linejoin="round" stroke-width="0.75"/><path d="M504.32,116.65l-2.75,11.85c17.52,6.26,46.37,0,46.37,0L538.82,108" fill="#f6d8a2"/><path d="M570.62,246.48,535.2,202.81a6.94,6.94,0,0,1-1.42-5.7l6.79-34.85a14,14,0,0,1,1-3.07c1.89-4.14,4.38-17.8,2.38-24.36" fill="none" stroke="#91302c" stroke-linejoin="round" stroke-width="0.75"/><path d="M499.86,133.52s15.07,8.27,50.14,0" fill="none" stroke="#91302c" stroke-linejoin="round" stroke-width="0.75"/><path d="M510.93,136.51l-1.69-.23a.89.89,0,0,1-.83-1l.76-3.93a1,1,0,0,1,1.13-.7l4,.33" fill="none" stroke="#91302c" stroke-linejoin="round" stroke-width="0.75"/><path d="M501.57,128.5c17.52,6.26,46.37,0,46.37,0" fill="none" stroke="#91302c" stroke-linejoin="round" stroke-width="0.75"/><ellipse cx="1.48" cy="1.23" rx="1.48" ry="1.23" transform="translate(510.7 132.36)" fill="#f8f4f1"/><line x2="0.71" y2="5.83" transform="translate(524.75 131.28)" fill="none" stroke="#91302c" stroke-linejoin="round" stroke-width="0.75"/><line x2="1.64" y2="5.4" transform="translate(539.81 129.89)" fill="none" stroke="#91302c" stroke-linejoin="round" stroke-width="0.75"/><path d="M533.65,136.51a14.14,14.14,0,0,0,10.81,9.21" fill="none" stroke="#91302c" stroke-linejoin="round" stroke-width="0.75"/><path d="M512.18,136.67s-.83,12.88-.83,14.42c0,1.88,2.59,2.81,2.59,2.81" fill="none" stroke="#91302c" stroke-linejoin="round" stroke-width="0.75"/><path d="M497.55,140.46a11.38,11.38,0,0,0,8.17-4.58" fill="none" stroke="#91302c" stroke-linejoin="round" stroke-width="0.75"/><line y1="70.65" x2="6.42" transform="translate(505.18 215.01)" fill="none" stroke="#91302c" stroke-linejoin="round" stroke-width="0.75"/><path d="M451.24,132.21l4.5,8.8s5.74,2.64,5.9,2.48,3.74-4,3.74-4.17-5-13.3-5-13.3" fill="#f6ca7d"/><path d="M499.46,69l-10.54,31.92-25.7,29.92,6.22,6s30.44-22.26,35.07-28.59S521,68.84,521,68.84" fill="#f6d8a2"/><path d="M465.41,129.11c-1.85,1.48-5.39,4.06-7.23,5.55-1.09.87-2.91,2.49-2.67,3,.6,1.19,3.21-1.92,3.52-1.32.19.37-2.21,2.19-3.44,3.13s-2.47,2.1-2.18,2.77c.37.85,6.48-3.89,6.48-3.89s-6.24,5.2-5.88,5.9c.51,1,6.79-4.22,6.79-4.22s-5.24,4.51-4.86,5.26,4.15-2.64,5.9-3.82c-1.07,1.08-4.11,3.63-3.83,4.18s2.76-1.11,3.33-1.57c3.45-2.79,9.77-8.86,9.77-8.86" fill="#f6d8a2"/><path d="M459,136.3a12.3,12.3,0,0,0,5.23-.85" fill="none" stroke="#e07a6c" stroke-linejoin="round" stroke-width="0.75"/><path d="M453.57,136.77c.71,1.78,1.23,3.53,2.1,5.24.22.43.64.94,1.07.74s.36-.75.28-1.18c-.17-.85-.62-2.92-.62-2.92" fill="#f6ca7d"/><path d="M462.09,143.49c-1.15-.65-2.31-1.27-3.48-1.88a1.48,1.48,0,0,0-.61-.21.56.56,0,0,0-.55.25.76.76,0,0,0,.09.68,5.27,5.27,0,0,0,3,2.12,1.89,1.89,0,0,0,.87.18.72.72,0,0,0,.66-.52" fill="#f6ca7d"/><path d="M463.22,142.7c-1-.83-2.15-1.4-3.2-2.19a1.659,1.659,0,0,0-.56-.32.58.58,0,0,0-.59.16.73.73,0,0,0,0,.69,5.3,5.3,0,0,0,2.59,2.59,2.07,2.07,0,0,0,.83.33,1,1,0,0,0,1.17-1.17" fill="#f6ca7d"/><path d="M464.19,141.52c-1-.83-1.67-1.27-2.72-2.06a1.659,1.659,0,0,0-.56-.32.58.58,0,0,0-.59.16.76.76,0,0,0,0,.69,5.3,5.3,0,0,0,2.59,2.59,2.07,2.07,0,0,0,.83.33c.29,0,1.05,0,.9-1.26" fill="#f6ca7d"/><path d="M465.38,140.53c-1-.9-1.39-1.36-2.38-2.23a1.72,1.72,0,0,0-.53-.36.57.57,0,0,0-.6.12.74.74,0,0,0-.08.68,5.33,5.33,0,0,0,2.4,2.78,2.19,2.19,0,0,0,.8.38c.3,0,1.25-.29.72-1.67" fill="#f6ca7d"/><path d="M514.82,56.38s-11.59,1.14-18.34,10c-6,7.9-9.28,25.86-9.28,25.86l12.51,9.4,10.67-17.89" fill="#e8e39e"/><path d="M503.08,70.87c-8.78,13.54-8.78,49.62-8.78,49.62s22.92,8.32,57.66-.9c0,0-7.24-37.24-10.67-40.56s-23.81-25.77-23.81-25.77l-11.76,9.39Z" fill="#e8e39e"/><path d="M560.13,145c0,2.36-.12,6.75-.09,9.11,0,1.4.17,3.83.68,3.93,1.31.26.47-3.71,1.13-3.58.41.08.37,3.09.35,4.64,0,1.38.12,3.24.83,3.42.9.24.93-7.5.93-7.5s.25,8.12,1,8.27c1.11.22.87-7.95.87-7.95s.32,6.91,1.14,7.07.48-4.9.64-7c.18,1.5.32,5.47.92,5.59s.83-2.86.82-3.59c-.07-4.44-1-13.15-1-13.15" fill="#f6d8a2"/><path d="M551.73,76s9.74,20.1,11.61,24.62c5.4,13,5.21,45,5.21,45l-8.29.17s-9.11-36.6-10-37.75c-3.51-4.38-15.32-22.77-15.32-22.77" fill="#f6d8a2"/><path d="M519.46,56.38s17.32.68,26.76,7.59S563.4,92.41,563.4,92.41L539,103l-9.76-21.16" fill="#e8e39e"/><path d="M529.22,81.83l9.76,21.16L563.4,92.41" fill="none" stroke="#5a636d" stroke-linejoin="round" stroke-width="0.75"/><path d="M516.29,44.11l5.79,10.4s.33,4.62-5.27,6.64c-4,1.45-5-2.69-5-2.69l-2.47-11.82" fill="#f6d8a2"/><path d="M503.45,30.69C499.14,37,497,51.78,505.72,51.82a12.38,12.38,0,0,0,12.4-10.94C519.12,32.48,507.76,24.37,503.45,30.69Z" fill="#f6d8a2"/><path d="M510.22,51a14.16,14.16,0,0,0,5.2-3.92" fill="none" stroke="#e07a6c" stroke-linejoin="round" stroke-width="0.75"/><path d="M504.78,39.19a.78.78,0,1,1-.91-.62.77.77,0,0,1,.91.62Z" fill="#33002c"/><path d="M502.75,37.21a3.47,3.47,0,0,1,4.45,1.23c.08.09.25,0,.2-.12A3.23,3.23,0,0,0,502.61,37a.143.143,0,1,0,.14.25Z" fill="#33002c"/><path d="M501.15,38.37s-3.45,5-3,5.64c.74,1.09,2.52.75,2.52.75" fill="#f6d8a2"/><path d="M505.54,46.29l-4.62-.73s.09,3.58,1.61,3.84C505.47,49.92,505.54,46.29,505.54,46.29Z" fill="#fff"/><path d="M520.53,23.11a12.26,12.26,0,0,0-13.24,1.56c-2.85,0-6.83,1.63-8.19,5.53a6.77,6.77,0,0,0,1.33,7.25c.31-1.07,1.85-5.2,3.38-6.54a30.451,30.451,0,0,1,4.46,4.6,38.682,38.682,0,0,1,3.83,6.35c1.12,2.33,2.47,4.53,3.7,6.8a27.6,27.6,0,0,0,4.58,6.49,26.081,26.081,0,0,0,10.16,5.93c3.75,1.27,7.65,2,11.51,2.93a17,17,0,0,1,7,2.9,24.179,24.179,0,0,1,3.84,4.47A16.66,16.66,0,0,0,553,61c-1-2.93-3-3.93-3.61-5.12C548,53,549,52,548.58,49a10,10,0,0,0-3.71-6.3c-2.4-1.9-5.37-2.27-8.29-2.79a16.56,16.56,0,0,1-7.13-2.8c-2-1.49-2.12-5.48-3.11-7.65a13.54,13.54,0,0,0-5.81-6.35Z" fill="#010101"/><path d="M510.38,42.11a2.19,2.19,0,0,1,2.68-1.06c1.54.56,2,2.45,1.65,4.05a2.78,2.78,0,0,1-2.31,2.51c-.86.1-1.69-.82-1.8-2.15" fill="#f6d8a2"/><path d="M495.63,98.6s1.28-20.65,4.23-26.72" fill="none" stroke="#5a636d" stroke-linejoin="round" stroke-width="0.75"/><path d="M31.68,64.13a16.94,16.94,0,0,1-8.29-9.39,7.83,7.83,0,0,1-.52-2.43A5.12,5.12,0,0,1,29,47.17c2,.4,3.55,1.92,4.84,3.49s2.32,3.26,1.89,5.1" fill="#f6ca7d"/><path d="M72.77,67.43,62.62,81.83l-24-27.1L28.15,61.66s17.71,46.9,34.47,46.9c12.51,0,30-30.44,30-30.44" fill="#f6ca7d"/><path d="M110.21,47.09S94.44,45,83.88,52.8s-21.26,26-21.26,26l31.1,18.67,16.49-22.54" fill="#6b527f"/><path d="M35.15,36.19a80.888,80.888,0,0,1-9.81,9.6c-1.79,1.46-4.21,2.45-5.8,4.12-1.26,1.32-.81,1.68.53,2.71a24.77,24.77,0,0,0,5.87,3.31,2.42,2.42,0,0,0,1.2.24,2.27,2.27,0,0,0,1-.48,22.94,22.94,0,0,0,3.75-3.75c2.87-3.42,8.49-9.56,10.84-13.36" fill="#b288d3"/><path d="M48.42,42.26a5.58,5.58,0,1,1-8.63-7,5.58,5.58,0,1,1,8.63,7Z" fill="#fff"/><path d="M38.05,43.88l-6.48-5L41.88,25.74l6.81,5.94A1.81,1.81,0,0,1,48.85,34c-2.31,4.12-4.83,7.54-8.48,9.71C39.59,44.19,38.73,44.48,38.05,43.88Z" fill="#699fed"/><path d="M39.21,34.36c-2.92,3.58-6.4,5.58-7.77,4.45s-.13-4.93,2.79-8.51,6.39-5.58,7.77-4.46S42.13,30.78,39.21,34.36Z" fill="#b288d3"/><path d="M10.44,32.05s14.12,2.84,21.07,5.58c2.55.58,5.38-2.44,6.82-4.24,3.71-4.64,3.21-6.62,3.21-6.62C36,20.1,31.44,6.35,31.44,6.35" fill="#fff"/><path d="M25.84,23.2C19,31.53,9.85,35.28,5.32,31.58S2.65,18.13,9.45,9.8,25.44-2.27,30,1.42,32.64,14.87,25.84,23.2Z" fill="#699fed"/><path d="M23.84,21.61C18.08,28.66,10.51,32,6.92,29.05S5.1,18,10.85,11,24.18.62,27.77,3.55,29.59,14.57,23.84,21.61Z" fill="#b288d3"/><path d="M13.55,18.26a41.67,41.67,0,0,1,6.79,7,30.39,30.39,0,0,0,3.5-3.64,30.6,30.6,0,0,0,2.87-4.15A41.8,41.8,0,0,1,18.5,12.2Z" fill="#1238a7"/><path d="M17.68,16.58c-1.38,1.69-3.24,2.45-4.16,1.71s-.53-2.73.85-4.42,3.25-2.46,4.16-1.71S19.06,14.88,17.68,16.58Z" fill="#fff"/><path d="M40.19,57.94a20,20,0,0,0-4.37-10.87c-2.25-2.61-4.48-4.9-7.91-4.57-.47,0-1.05.27-1,.74a1,1,0,0,0,.49.68A9.06,9.06,0,0,1,31,48.77,20.24,20.24,0,0,1,31.29,52a10.22,10.22,0,0,0,3.83,7.13" fill="#f6ca7d"/><path d="M21.34,48.43a4.71,4.71,0,0,1,0-1.87,2.09,2.09,0,0,1,.66-.79,1.09,1.09,0,0,1,.88-.18,2.53,2.53,0,0,1,.85.36,4.77,4.77,0,0,1,2.38,3.16.43.43,0,0,1,0,.25.52.52,0,0,1-.14.16,2.15,2.15,0,0,1-1.2.37c-1,0-2.63-1.63-2.75-1.89" fill="#f6ca7d"/><path d="M22.85,46.85a5.4,5.4,0,0,1,.28-2,1.44,1.44,0,0,1,.43-.71,1.1,1.1,0,0,1,.88-.19,2.59,2.59,0,0,1,.85.37,4.76,4.76,0,0,1,2.39,3.15.52.52,0,0,1,0,.25.44.44,0,0,1-.14.16,1.39,1.39,0,0,1-1.21.15,4.06,4.06,0,0,1-1.11-.58l-1.15-.76a1.4,1.4,0,0,1-.6-.58" fill="#f6ca7d"/><path d="M24.42,45.19a5.38,5.38,0,0,1,.29-2,1.44,1.44,0,0,1,.43-.72,1.13,1.13,0,0,1,.88-.18,2.78,2.78,0,0,1,.85.37,4.76,4.76,0,0,1,2.38,3.15.43.43,0,0,1,0,.25.36.36,0,0,1-.14.16,1.37,1.37,0,0,1-1.2.15,3.92,3.92,0,0,1-1.11-.58L25.63,45a1.67,1.67,0,0,1-.6-.58" fill="#f6ca7d"/><path d="M26,43.53a5.45,5.45,0,0,1,.28-2,1.53,1.53,0,0,1,.43-.71,1.09,1.09,0,0,1,.88-.18,2.57,2.57,0,0,1,.85.36,4.76,4.76,0,0,1,2.39,3.16.53.53,0,0,1,0,.25.39.39,0,0,1-.15.16,1.37,1.37,0,0,1-1.2.15,4.36,4.36,0,0,1-1.11-.58l-1.15-.76a1.48,1.48,0,0,1-.6-.59" fill="#f6ca7d"/><path d="M31.45,50.26s0,6.78,2.09,8.85" fill="none" stroke="#d85039" stroke-linejoin="round" stroke-width="0.75"/><path d="M119.09,310.18v-1.8H91.46a3.26,3.26,0,0,1-2.79-1.58h-.2v2.91a.42.42,0,0,0,.12.29l.07.07a2.5,2.5,0,0,0,1.82.79h28a.63.63,0,0,0,.61-.68Z" fill="#010101"/><path d="M116.75,275.19l1.49,23.15-.77,9.41H90.73a1.36,1.36,0,0,1-1.36-1.37h0a1.36,1.36,0,0,1,.87-1.27l12.8-7.72-4.77-22.68" fill="#f6ca7d"/><path d="M103,297.39l-13.6,7.69a1.71,1.71,0,0,0-1,1.59h0a1.87,1.87,0,0,0,1.8,1.71h28.82L118.27,298S109.38,301,103,297.39Z" fill="#6b527f"/><path d="M100.49,298a16.349,16.349,0,0,1,2,3.33" fill="none" stroke="#010101" stroke-linecap="round" stroke-linejoin="round" stroke-width="1"/><path d="M98.72,299.08a14.121,14.121,0,0,1,1.65,2.83" fill="none" stroke="#010101" stroke-linecap="round" stroke-linejoin="round" stroke-width="1"/><path d="M97.23,299.86a20.314,20.314,0,0,1,1.49,2.6" fill="none" stroke="#010101" stroke-linecap="round" stroke-linejoin="round" stroke-width="1"/><path d="M167.65,310.18v-1.8H140a3.26,3.26,0,0,1-2.79-1.58h-.2v2.91a.42.42,0,0,0,.12.29l.07.07a2.5,2.5,0,0,0,1.82.79h28a.64.64,0,0,0,.63-.68Z" fill="#010101"/><path d="M165.3,275.19l1.49,23.15-.77,9.41H139.28a1.36,1.36,0,0,1-1.36-1.37h0a1.36,1.36,0,0,1,.87-1.27l12.8-7.72-4.77-22.68" fill="#f6ca7d"/><path d="M151.59,297.39,138,305.08a1.71,1.71,0,0,0-1,1.59h0a1.88,1.88,0,0,0,1.81,1.71h28.82L166.82,298S157.93,301,151.59,297.39Z" fill="#6b527f"/><path d="M149,298a16.86,16.86,0,0,1,2,3.33" fill="none" stroke="#010101" stroke-linecap="round" stroke-linejoin="round" stroke-width="1"/><path d="M147.28,299.08a14.539,14.539,0,0,1,1.64,2.83" fill="none" stroke="#010101" stroke-linecap="round" stroke-linejoin="round" stroke-width="1"/><path d="M145.78,299.86a21.638,21.638,0,0,1,1.5,2.6" fill="none" stroke="#010101" stroke-linecap="round" stroke-linejoin="round" stroke-width="1"/><path d="M110.29,128.78s-2.44,18.72,0,35.81,32.85,125.49,32.85,125.49h32.38l-18-122.6s1.37-18.62-9.65-34.45" fill="#3e3e3e"/><path d="M84.66,133s-1.41,25.13-.44,52.76c1.62,45.76,9.31,104.29,9.31,104.29h30.69l-1.47-119.22s6.43-28.08.19-41" fill="#3e3e3e"/><path d="M123.33,219.43s-10.66-53.78-14.12-76.34" fill="none" stroke="#2a2a2a" stroke-linejoin="round" stroke-width="0.75"/><path d="M106.44,143.09l2.33,14.09a3.65,3.65,0,0,0,2.23,2.58l1,.39" fill="none" stroke="#2a2a2a" stroke-linejoin="round" stroke-width="0.75"/><line x2="33.39" transform="translate(141.02 282.49)" fill="none" stroke="#2a2a2a" stroke-linejoin="round" stroke-width="0.75"/><path d="M170.53,290.08,150.17,167s1.24-17.09-6.1-27" fill="none" stroke="#2a2a2a" stroke-linejoin="round" stroke-width="0.75"/><path d="M131.62,143.17s3,5.83,5.77,6.78S149.24,153,149.24,153" fill="none" stroke="#2a2a2a" stroke-linejoin="round" stroke-width="0.75"/><path d="M84.43,153s7.22-2.12,9.26-3.08c2.59-1.21,2.8-7.91,2.8-7.91" fill="none" stroke="#2a2a2a" stroke-linejoin="round" stroke-width="0.75"/><line x1="31.59" transform="translate(92.58 282.49)" fill="none" stroke="#2a2a2a" stroke-linejoin="round" stroke-width="0.75"/><path d="M119.72,290.08s-3.45-93.18-3.45-105.87" fill="none" stroke="#2a2a2a" stroke-linejoin="round" stroke-width="0.75"/><path d="M99.21,51S86.35,60.72,84.43,86.6c-1.86,25-2.37,54.7-2.37,54.7,30.22,9.46,75.17-.33,75.17-.33s-7.89-66-20.21-85.45l-22-10Z" fill="#6b527f"/><path d="M134.57,80.87s9.14,12,19.38,25.76c8.08,10.84,44.24,36.54,44.24,36.54l6.17-10.81-29-35.55L153.44,65.64" fill="#f6ca7d"/><path d="M202.86,131.22c2.25,1.77,6.58,4.8,8.82,6.58,1.33,1,3.54,3,3.24,3.72-.8,1.8-3.95-2.15-4.35-1.23-.24.55,2.68,2.71,4.18,3.83,1.34,1,3,2.53,2.63,3.53-.49,1.28-7.94-4.36-7.94-4.36s7.59,6.27,7.12,7.33c-.67,1.52-8.32-4.77-8.32-4.77s6.38,5.46,5.88,6.59-5.08-3-7.22-4.35c1.29,1.33,5,4.41,4.63,5.24s-3.41-1.07-4.1-1.63c-4.21-3.34-11.87-10.82-11.87-10.82" fill="#f6ca7d"/><path d="M201.62,135.42s2.48,3.73,6,3.86" fill="none" stroke="#d85039" stroke-linejoin="round" stroke-width="0.75"/><path d="M117.87,46.92s20.49-1.22,29.4,7.7a89.909,89.909,0,0,1,14.64,20.27l-22.4,18.9L127.6,73" fill="#6b527f"/><line x1="12.57" y1="18.09" transform="translate(126.94 75.7)" fill="none" stroke="#010101" stroke-linejoin="round" stroke-width="0.75"/><path d="M103.69,46.86c.42.42-1,6.79,9,6.79,9.62,0,12.12-6.56,12.12-6.56" fill="none" stroke="#010101" stroke-linejoin="round" stroke-width="0.75"/><line y1="26.73" x2="2.62" transform="translate(83.8 64.75)" fill="none" stroke="#010101" stroke-linejoin="round" stroke-width="0.75"/><path d="M107.12,36.24,117.57,24l4.19,12.11.28,2.66-.38,9.34s-8.4,6-14.74,1.08a1.39,1.39,0,0,1-.51-1.19l.71-11.72" fill="#f6ca7d"/><path d="M109.49,15.28c-3.44,3.82-9.89,17.24-7,22.55,2.6,4.79,8,4.65,11.5,3,3-1.4,11.13-13,9.42-17.74S114.31,9.91,109.49,15.28Z" fill="#f6ca7d"/><path d="M122.61,15.21c-1.14-2.81-4.4-4.48-7.64-4.69-1.65-.1-10.78,1.43-11.28,8.05l11.6,2.92c.65,3.41,1.2,8.15,2.65,11.3.16.34,3.55,7.14,4,6.78,7-4.54,10.64-10.3,8.8-15.83C129.7,20.75,127.29,16,122.61,15.21Z" fill="#010101"/><path d="M107.31,41.72s5,.59,7.9-2" fill="none" stroke="#d85039" stroke-linejoin="round" stroke-width="0.75"/><path d="M105.68,24.9s-5.92,3.1-5.76,4.6,2.41,1.79,2.41,1.79" fill="#f6ca7d"/><path d="M107.59,25a3.82,3.82,0,0,0-.54.84.63.63,0,0,0,.52.91c.81.13,1.51-1.57.61-1.9a.52.52,0,0,0-.59.15Z" fill="#010101"/><path d="M104,33.33l5.81,1.15s-1.77,4-5.13,3C102.62,36.84,104,33.33,104,33.33Z" fill="#fff"/><path d="M107.32,23.12a10.08,10.08,0,0,1,3,2.41c.14,0,.71-.39.7-.79a7.32,7.32,0,0,0-3.08-2.63S107.17,22.86,107.32,23.12Z" fill="#010101"/><path d="M116.79,30.89c.83-.57,1.86-1.17,2.72-.82a1.68,1.68,0,0,1,.91,1,4.77,4.77,0,0,1-3,6c-1,.28-2.15.08-2.34-1.13l1.3-4.59C116.41,31.16,116.61,31,116.79,30.89Z" fill="#f6ca7d"/><path d="M118.58,36.55s-2,1.15-3.36-.14" fill="none" stroke="#d85039" stroke-linejoin="round" stroke-width="0.75"/></g></svg>